{"title":"Rabba Ho (Soul Version) Full HD 1080p Video Song - Falak Shabir ","uid":12411894,"size":23898190,"categoryP":"video","categoryS":"music_videos","magnet":"?xt=urn:btih:a467f6b360c7b71a5ed0ba2d8a25f72442d6b0bd&amp;dn=Rabba+Ho+%28Soul+Version%29+Full+HD+1080p+Video+Song+-+Falak+Shabir+&amp;tr=udp%3A%2F%2Ftracker.openbittorrent.com%3A80&amp;tr=udp%3A%2F%2Fopen.demonii.com%3A1337&amp;tr=udp%3A%2F%2Ftracker.coppersurfer.tk%3A6969&amp;tr=udp%3A%2F%2Fexodus.desync.com%3A6969","seeders":0,"leechers":1,"uploader":"Aainul","files":5,"time":1442159356,"description":"Rabba Ho (Soul Version) Full HD 1080p Video Song - Falak Shabir 2015 - Team truHD HEVC \n\n\n\nTeam truHD HEVC Presents \n\n  \n\nSource: WEB-DL \n\nEncoder: truHD HEVC Encoding Team \n\nEncoded File Info: \n\nGeneral \n\nFormat                                   : MPEG-4 \nFormat profile                           : Base Media \nCodec ID                                 : iso4 \nFile size                                : 22.6 MiB \nDuration                                 : 3mn 40s \nOverall bit rate                         : 860 Kbps \nEncoded date                             : UTC 2015-09-12 07:06:50 \nTagged date                              : UTC 2015-09-12 07:06:50 \n\nVideo \nID                                       : 1 \nFormat                                   : HEVC \nFormat/Info                              : High Efficiency Video Coding \nCodec ID                                 : hvc1 \nCodec ID/Info                            : High Efficiency Video Coding \nDuration                                 : 3mn 40s \nBit rate                                 : 666 Kbps \nMaximum bit rate                         : 3 160 Kbps \nWidth                                    : 1 920 pixels \nHeight                                   : 1 080 pixels \nDisplay aspect ratio                     : 16:9 \nFrame rate mode                          : Constant \nFrame rate                               : 25.000 fps \nBits/(Pixel*Frame)                       : 0.013 \nStream size                              : 17.5 MiB (77%) \nTitle                                    : Video \nEncoded date                             : UTC 2015-09-12 07:06:50 \nTagged date                              : UTC 2015-09-12 07:06:52 \n\nAudio \nID                                       : 2 \nFormat                                   : AC-3 \nFormat/Info                              : Audio Coding 3 \nMode extension                           : CM (complete main) \nFormat settings, Endianness              : Big \nCodec ID                                 : ac-3 \nDuration                                 : 3mn 40s \nBit rate mode                            : Constant \nBit rate                                 : 192 Kbps \nMaximum bit rate                         : 203 Kbps \nChannel(s)                               : 6 channels \nChannel positions                        : Front: L C R, Side: L R, LFE \nSampling rate                            : 48.0 KHz \nBit depth                                : 16 bits \nCompression mode                         : Lossy \nStream size                              : 5.04 MiB (22%) \nTitle                                    : Rabba Ho Xclusive truHD HEVC \nEncoded date                             : UTC 2015-09-12 07:06:51 \nTagged date                              : UTC 2015-09-12 07:06:52 \n\n\nScreenShots: \n &lt;a href=&quot;\nhttp://i.imgur.com/bQnzcVB.jpg&quot; rel=&quot;nofollow&quot; target=&quot;_NEW&quot;&gt;\nhttp://i.imgur.com/bQnzcVB.jpg&lt;/a&gt;\n\nLike Us On FB And Request Accepted\n\nKickAssTorrents:      &lt;a href=&quot;\nhttps://kat.cr/user/Aainul/&quot; rel=&quot;nofollow&quot; target=&quot;_NEW&quot;&gt;\nhttps://kat.cr/user/Aainul/&lt;/a&gt;\nGloTorrents:      &lt;a href=&quot;\nhttps://glodls.to/user/Aainul&quot; rel=&quot;nofollow&quot; target=&quot;_NEW&quot;&gt;\nhttps://glodls.to/user/Aainul&lt;/a&gt;\nThePirateBay:      &lt;a href=&quot;\nhttps://thepiratebay.vg/user/Aainul/&quot; rel=&quot;nofollow&quot; target=&quot;_NEW&quot;&gt;\nhttps://thepiratebay.vg/user/Aainul/&lt;/a&gt;\n1337x Torrents:      &lt;a href=&quot;\nhttp://1337.to/user/Aainul/&quot; rel=&quot;nofollow&quot; target=&quot;_NEW&quot;&gt;\nhttp://1337.to/user/Aainul/&lt;/a&gt;\n\n\nNote: All Videos Uploaded By Me Are For Review Purpose. If You Like IT, Google IT And Buy IT - Thanks\n\n\nKing Regards\ntruHD HEVC Team\n\nShare Among Friends And Relatives","torrent":{"xt":"urn:btih:a467f6b360c7b71a5ed0ba2d8a25f72442d6b0bd","amp;dn":"Rabba+Ho+%28Soul+Version%29+Full+HD+1080p+Video+Song+-+Falak+Shabir+","amp;tr":["udp%3A%2F%2Ftracker.openbittorrent.com%3A80","udp%3A%2F%2Fopen.demonii.com%3A1337","udp%3A%2F%2Ftracker.coppersurfer.tk%3A6969","udp%3A%2F%2Fexodus.desync.com%3A6969"],"infoHash":"a467f6b360c7b71a5ed0ba2d8a25f72442d6b0bd","infoHashBuffer":{"type":"Buffer","data":[164,103,246,179,96,199,183,26,94,208,186,45,138,37,247,36,66,214,176,189]},"announce":[],"urlList":[]}}